[Header]
FileType HTR
DataType HTRS
FileVersion 1
NumSegments 64
NumFrames 4
DataFrameRate 30
EulerRotationOrder ZYX
CalibrationUnits mm
RotationUnits Degrees
GlobalAxisofGravity Y
BoneLengthAxis Y
ScaleFactor 1.0
[SegmentNames&Hierarchy]
Hips	GLOBAL
Spine	Hips
Spine1	Spine
Spine2	Spine1
Neck	Spine2
Head	Neck
LeftEye	Head
RightEye	Head
LeftShoulder	Spine2
LeftArm	LeftShoulder
LeftForeArm	LeftArm
LeftHand	LeftForeArm
LeftHandThumb1	LeftHand
LeftHandThumb2	LeftHandThumb1
LeftHandThumb3	LeftHandThumb2
LeftHandThumb4	LeftHandThumb3
LeftHandIndex1	LeftHand
LeftHandIndex2	LeftHandIndex1
LeftHandIndex3	LeftHandIndex2
LeftHandIndex4	LeftHandIndex3
LeftHandMiddle1	LeftHand
LeftHandMiddle2	LeftHandMiddle1
LeftHandMiddle3	LeftHandMiddle2
LeftHandMiddle4	LeftHandMiddle3
LeftHandRing1	LeftHand
LeftHandRing2	LeftHandRing1
LeftHandRing3	LeftHandRing2
LeftHandRing4	LeftHandRing3
LeftHandPinky1	LeftHand
LeftHandPinky2	LeftHandPinky1
LeftHandPinky3	LeftHandPinky2
LeftHandPinky4	LeftHandPinky3
RightShoulder	Spine2
RightArm	RightShoulder
RightForeArm	RightArm
RightHand	RightForeArm
RightHandPinky1	RightHand
RightHandPinky2	RightHandPinky1
RightHandPinky3	RightHandPinky2
RightHandPinky4	RightHandPinky3
RightHandRing1	RightHand
RightHandRing2	RightHandRing1
RightHandRing3	RightHandRing2
RightHandRing4	RightHandRing3
RightHandMiddle1	RightHand
RightHandMiddle2	RightHandMiddle1
RightHandMiddle3	RightHandMiddle2
RightHandMiddle4	RightHandMiddle3
RightHandIndex1	RightHand
RightHandIndex2	RightHandIndex1
RightHandIndex3	RightHandIndex2
RightHandIndex4	RightHandIndex3
RightHandThumb1	RightHand
RightHandThumb2	RightHandThumb1
RightHandThumb3	RightHandThumb2
RightHandThumb4	RightHandThumb3
LeftUpLeg	Hips
LeftLeg	LeftUpLeg
LeftFoot	LeftLeg
LeftToeBase	LeftFoot
RightUpLeg	Hips
RightLeg	RightUpLeg
RightFoot	RightLeg
RightToeBase	RightFoot
[BasePosition]
Hips	0	0	0	0	0	0	1
Spine	0	0	0	0	0	0	1
Spine1	0	0	0	0	0	0	1
Spine2	0	0	0	0	0	0	1
Neck	0	0	0	0	0	0	1
Head	0	0	0	0	0	0	1
LeftEye	0	0	0	0	0	0	1
RightEye	0	0	0	0	0	0	1
LeftShoulder	0	0	0	0	0	0	1
LeftArm	0	0	0	0	0	0	1
LeftForeArm	0	0	0	0	0	0	1
LeftHand	0	0	0	0	0	0	1
LeftHandThumb1	0	0	0	0	0	0	1
LeftHandThumb2	0	0	0	0	0	0	1
LeftHandThumb3	0	0	0	0	0	0	1
LeftHandThumb4	0	0	0	0	0	0	1
LeftHandIndex1	0	0	0	0	0	0	1
LeftHandIndex2	0	0	0	0	0	0	1
LeftHandIndex3	0	0	0	0	0	0	1
LeftHandIndex4	0	0	0	0	0	0	1
LeftHandMiddle1	0	0	0	0	0	0	1
LeftHandMiddle2	0	0	0	0	0	0	1
LeftHandMiddle3	0	0	0	0	0	0	1
LeftHandMiddle4	0	0	0	0	0	0	1
LeftHandRing1	0	0	0	0	0	0	1
LeftHandRing2	0	0	0	0	0	0	1
LeftHandRing3	0	0	0	0	0	0	1
LeftHandRing4	0	0	0	0	0	0	1
LeftHandPinky1	0	0	0	0	0	0	1
LeftHandPinky2	0	0	0	0	0	0	1
LeftHandPinky3	0	0	0	0	0	0	1
LeftHandPinky4	0	0	0	0	0	0	1
RightShoulder	0	0	0	0	0	0	1
RightArm	0	0	0	0	0	0	1
RightForeArm	0	0	0	0	0	0	1
RightHand	0	0	0	0	0	0	1
RightHandPinky1	0	0	0	0	0	0	1
RightHandPinky2	0	0	0	0	0	0	1
RightHandPinky3	0	0	0	0	0	0	1
RightHandPinky4	0	0	0	0	0	0	1
RightHandRing1	0	0	0	0	0	0	1
RightHandRing2	0	0	0	0	0	0	1
RightHandRing3	0	0	0	0	0	0	1
RightHandRing4	0	0	0	0	0	0	1
RightHandMiddle1	0	0	0	0	0	0	1
RightHandMiddle2	0	0	0	0	0	0	1
RightHandMiddle3	0	0	0	0	0	0	1
RightHandMiddle4	0	0	0	0	0	0	1
RightHandIndex1	0	0	0	0	0	0	1
RightHandIndex2	0	0	0	0	0	0	1
RightHandIndex3	0	0	0	0	0	0	1
RightHandIndex4	0	0	0	0	0	0	1
RightHandThumb1	0	0	0	0	0	0	1
RightHandThumb2	0	0	0	0	0	0	1
RightHandThumb3	0	0	0	0	0	0	1
RightHandThumb4	0	0	0	0	0	0	1
LeftUpLeg	0	0	0	0	0	0	1
LeftLeg	0	0	0	0	0	0	1
LeftFoot	0	0	0	0	0	0	1
LeftToeBase	0	0	0	0	0	0	1
RightUpLeg	0	0	0	0	0	0	1
RightLeg	0	0	0	0	0	0	1
RightFoot	0	0	0	0	0	0	1
RightToeBase	0	0	0	0	0	0	1
[Hips]
1	-11.65678024	988.225769	5.348737717	-13.35840797	-47.55239868	6.767032146	1.0
2	-11.72758198	988.1500244	5.535224915	-13.217206	-47.46753311	6.713428974	1.0
3	-11.72717571	988.2577515	5.797252178	-13.01640034	-47.24427414	6.590482235	1.0
4	-11.62753201	988.5981445	6.16732502	-12.74517345	-46.89606857	6.398303986	1.0
[Spine]
1	0	101.8159943	1.315000057	1.480259061	0.4299694002	-0.14910689	1.0
2	0	101.8159943	1.315000057	1.49479115	0.4298313856	-0.1479504406	1.0
3	0	101.8159943	1.315000057	1.520006776	0.4449587166	-0.1541680098	1.0
4	0	101.8159943	1.315000057	1.545289993	0.460924089	-0.15625301	1.0
[Spine1]
1	0	100.8349991	-10.00800037	2.961585045	0.6345062256	0.4196281135	1.0
2	0	100.8349991	-10.00800037	2.990628481	0.6366384029	0.4141100645	1.0
3	0	100.8349991	-10.00800037	3.041093349	0.6718820333	0.383512646	1.0
4	0	100.8349991	-10.00800037	3.091674328	0.7114828229	0.3498665392	1.0
[Spine2]
1	0	91	-13.73399925	2.96158576	0.6345163584	0.4196294844	1.0
2	0	91	-13.73399925	2.990628719	0.6366342306	0.4141096473	1.0
3	0	91	-13.73399925	3.041092396	0.6718786359	0.3835121691	1.0
4	0	91	-13.73399925	3.091672421	0.7114821076	0.349866271	1.0
[Neck]
1	0	166.7169952	-25.16200066	14.28000259	6.046374798	-2.285687685	1.0
2	0	166.7169952	-25.16200066	14.23489571	6.043937206	-2.267638922	1.0
3	0	166.7169952	-25.16200066	14.11772728	5.972429752	-2.128224373	1.0
4	0	166.7169952	-25.16200066	13.9654665	5.873878002	-1.939570189	1.0
[Head]
1	0	96.17900085	16.84999847	-2.601031303	29.88977242	-6.528122902	1.0
2	0	96.17900085	16.84999847	-2.665889263	29.87307167	-6.480265617	1.0
3	0	96.17900085	16.84999847	-2.755656719	29.79819489	-6.538267136	1.0
4	0	96.17900085	16.84999847	-2.792061806	29.68153	-6.595015526	1.0
[LeftEye]
1	30.6760006	64.09500122	92.83599854	0	0	0	1.0
2	30.6760006	64.09500122	92.83599854	0	0	0	1.0
3	30.6760006	64.09500122	92.83599854	0	0	0	1.0
4	30.6760006	64.09500122	92.83599854	0	0	0	1.0
[RightEye]
1	-30.6760006	64.09500122	92.83499908	0	0	0	1.0
2	-30.6760006	64.09500122	92.83499908	0	0	0	1.0
3	-30.6760006	64.09500122	92.83499908	0	0	0	1.0
4	-30.6760006	64.09500122	92.83499908	0	0	0	1.0
[LeftShoulder]
1	45.70400238	109.4599991	-26.28000069	0.3824349642	-19.19978333	-0.2880051136	1.0
2	45.70400238	109.4599991	-26.28000069	0.3911359012	-19.20723152	-0.3198356926	1.0
3	45.70400238	109.4599991	-26.28000069	0.3781409264	-19.22894287	-0.2812930048	1.0
4	45.70400238	109.4599991	-26.28000069	0.3761606514	-19.24777603	-0.2823113501	1.0
[LeftArm]
1	105.923996	-5.24600029	-22.32099915	-47.41984177	9.509555817	-36.37831497	1.0
2	105.923996	-5.24600029	-22.32099915	-47.44655228	9.409116745	-36.37002563	1.0
3	105.923996	-5.24600029	-22.32099915	-47.45740891	9.107096672	-36.31040955	1.0
4	105.923996	-5.24600029	-22.32099915	-47.41932297	8.657623291	-36.23465729	1.0
[LeftForeArm]
1	278.414978	-0.0009999999311	0	-6.737579346	-117.1767883	3.73109436	1.0
2	278.414978	-0.0009999999311	0	-6.728283882	-117.1949387	3.720907927	1.0
3	278.414978	-0.0009999999311	0	-6.712822914	-117.1416702	3.705991745	1.0
4	278.414978	-0.0009999999311	0	-6.68289566	-117.0404892	3.682447195	1.0
[LeftHand]
1	283.2879944	0	0	7.55291605	2.800012827	0.1537014395	1.0
2	283.2879944	0	0	7.150819302	2.672829628	0.1651708037	1.0
3	283.2879944	0	0	6.976946831	2.799291611	-0.03133781254	1.0
4	283.2879944	0	0	6.909988403	2.979883909	-0.3023612201	1.0
[LeftHandThumb1]
1	24.6609993	-15.75	26.8239994	10.27406406	-16.38525391	-1.318416595	1.0
2	24.6609993	-15.75	26.8239994	10.27526093	-16.38699532	-1.317097783	1.0
3	24.6609993	-15.75	26.8239994	10.27839661	-16.39151382	-1.313619494	1.0
4	24.6609993	-15.75	26.8239994	10.28374195	-16.39925575	-1.307670355	1.0
[LeftHandThumb2]
1	32.29800034	-18.64699936	18.64699936	-1.242076278	35.04988098	-48.83063889	1.0
2	32.29800034	-18.64699936	18.64699936	-1.242705703	35.04949188	-48.83338165	1.0
3	32.29800034	-18.64699936	18.64699936	-1.244324088	35.04848862	-48.84049988	1.0
4	32.29800034	-18.64699936	18.64699936	-1.247096181	35.04678345	-48.85270309	1.0
[LeftHandThumb3]
1	26.52600098	-15.31499958	15.31499958	3.601811159e-06	-8.438974328e-05	-6.943767221e-05	1.0
2	26.52600098	-15.31499958	15.31499958	3.601811159e-06	-8.438974328e-05	-6.943767221e-05	1.0
3	26.52600098	-15.31499958	15.31499958	3.601811159e-06	-8.438974328e-05	-6.943767221e-05	1.0
4	26.52600098	-15.31499958	15.31499958	3.601811159e-06	-8.438974328e-05	-6.943767221e-05	1.0
[LeftHandThumb4]
1	19.54599953	-11.28499985	11.28499985	0	0	0	1.0
2	19.54599953	-11.28499985	11.28499985	0	0	0	1.0
3	19.54599953	-11.28499985	11.28499985	0	0	0	1.0
4	19.54599953	-11.28499985	11.28499985	0	0	0	1.0
[LeftHandIndex1]
1	91.09299469	-5.170999527	22.60099792	4.757619858	-1.945107341	-108.7756958	1.0
2	91.09299469	-5.170999527	22.60099792	4.757629395	-1.945099473	-108.7757416	1.0
3	91.09299469	-5.170999527	22.60099792	4.757620811	-1.945089221	-108.7757339	1.0
4	91.09299469	-5.170999527	22.60099792	4.757622719	-1.945097089	-108.7757568	1.0
[LeftHandIndex2]
1	36.76399994	0	0	-0.3196705878	-8.598956108	-95.1112442	1.0
2	36.76399994	0	0	-0.3196750581	-8.598958015	-95.11125946	1.0
3	36.76399994	0	0	-0.3196646571	-8.598964691	-95.11125183	1.0
4	36.76399994	0	0	-0.3196589649	-8.598971367	-95.11130524	1.0
[LeftHandIndex3]
1	28.83100128	0	0	-1.432096042e-06	3.907105395e-07	1.552835329e-06	1.0
2	28.83100128	0	0	-1.432096042e-06	3.907105395e-07	1.552835329e-06	1.0
3	28.83100128	0	0	-1.432096042e-06	3.907105395e-07	1.552835329e-06	1.0
4	28.83100128	0	0	-1.432096042e-06	3.907105395e-07	1.552835329e-06	1.0
[LeftHandIndex4]
1	23.92700005	0	0	0	0	0	1.0
2	23.92700005	0	0	0	0	0	1.0
3	23.92700005	0	0	0	0	0	1.0
4	23.92700005	0	0	0	0	0	1.0
[LeftHandMiddle1]
1	95.33399963	0	0	1.404794574	-7.958361626	-103.4222412	1.0
2	95.33399963	0	0	1.404781818	-7.958301544	-103.4222565	1.0
3	95.33399963	0	0	1.404723883	-7.958150864	-103.4222717	1.0
4	95.33399963	0	0	1.404660225	-7.957926273	-103.4223251	1.0
[LeftHandMiddle2]
1	36.98199844	0	0	1.159435987	-8.956150055	-94.79908752	1.0
2	36.98199844	0	0	1.159436107	-8.956147194	-94.79906464	1.0
3	36.98199844	0	0	1.159442782	-8.956148148	-94.7990799	1.0
4	36.98199844	0	0	1.159448743	-8.956151962	-94.7991333	1.0
[LeftHandMiddle3]
1	29.50900078	0	0	0	-3.180554719e-15	-7.951386796e-16	1.0
2	29.50900078	0	0	0	-3.180554719e-15	-7.951386796e-16	1.0
3	29.50900078	0	0	0	-3.180554719e-15	-7.951386796e-16	1.0
4	29.50900078	0	0	0	-3.180554719e-15	-7.951386796e-16	1.0
[LeftHandMiddle4]
1	28.3390007	0	0	0	0	0	1.0
2	28.3390007	0	0	0	0	0	1.0
3	28.3390007	0	0	0	0	0	1.0
4	28.3390007	0	0	0	0	0	1.0
[LeftHandRing1]
1	91.04499817	-0.4390000105	-18.65100098	-3.181962013	-10.61867046	-108.2252274	1.0
2	91.04499817	-0.4390000105	-18.65100098	-3.181958199	-10.61866856	-108.2252426	1.0
3	91.04499817	-0.4390000105	-18.65100098	-3.181970835	-10.61866665	-108.2252274	1.0
4	91.04499817	-0.4390000105	-18.65100098	-3.181964874	-10.61867332	-108.2252731	1.0
[LeftHandRing2]
1	31.54000092	0	0	7.172859192	-2.354171753	-86.57150269	1.0
2	31.54000092	0	0	7.172866344	-2.354177475	-86.57150269	1.0
3	31.54000092	0	0	7.172865391	-2.354170799	-86.5714798	1.0
4	31.54000092	0	0	7.172864914	-2.354166031	-86.5715332	1.0
[LeftHandRing3]
1	29.37700081	0	0	1.590277359e-15	3.180554719e-15	-7.951386796e-16	1.0
2	29.37700081	0	0	1.590277359e-15	3.180554719e-15	-7.951386796e-16	1.0
3	29.37700081	0	0	1.590277359e-15	3.180554719e-15	-7.951386796e-16	1.0
4	29.37700081	0	0	1.590277359e-15	3.180554719e-15	-7.951386796e-16	1.0
[LeftHandRing4]
1	26.47500038	0	0	0	0	0	1.0
2	26.47500038	0	0	0	0	0	1.0
3	26.47500038	0	0	0	0	0	1.0
4	26.47500038	0	0	0	0	0	1.0
[LeftHandPinky1]
1	80.77799988	-4.887000084	-38.06099701	-2.318611622	-14.83050346	-110.2976074	1.0
2	80.77799988	-4.887000084	-38.06099701	-2.318631887	-14.83048916	-110.2974854	1.0
3	80.77799988	-4.887000084	-38.06099701	-2.318746328	-14.83045101	-110.2970963	1.0
4	80.77799988	-4.887000084	-38.06099701	-2.31891489	-14.8303957	-110.2964783	1.0
[LeftHandPinky2]
1	36	0	0	11.51484585	0.7685707808	-94.02005005	1.0
2	36	0	0	11.51485634	0.7686786056	-94.02069855	1.0
3	36	0	0	11.51481915	0.7689951062	-94.02246094	1.0
4	36	0	0	11.51478195	0.7695500851	-94.02547455	1.0
[LeftHandPinky3]
1	21.14200211	0	0	3.226109357e-06	2.925280342e-06	-5.739977951e-06	1.0
2	21.14200211	0	0	3.226109357e-06	2.925280342e-06	-5.739977951e-06	1.0
3	21.14200211	0	0	3.226109357e-06	2.925280342e-06	-5.739977951e-06	1.0
4	21.14200211	0	0	3.226109357e-06	2.925280342e-06	-5.739977951e-06	1.0
[LeftHandPinky4]
1	19.75699997	0	0	0	0	0	1.0
2	19.75699997	0	0	0	0	0	1.0
3	19.75699997	0	0	0	0	0	1.0
4	19.75699997	0	0	0	0	0	1.0
[RightShoulder]
1	-45.70000076	109.4620056	-26.28000069	-0.2573672533	-3.679485321	1.982535839	1.0
2	-45.70000076	109.4620056	-26.28000069	-0.2566580474	-3.594594002	2.03980732	1.0
3	-45.70000076	109.4620056	-26.28000069	-0.2649266422	-3.643714905	2.298664808	1.0
4	-45.70000076	109.4620056	-26.28000069	-0.27384758	-3.715693951	2.691075563	1.0
[RightArm]
1	-105.9280014	-5.248000145	-22.32099915	63.99015427	56.12335968	96.68294525	1.0
2	-105.9280014	-5.248000145	-22.32099915	63.76260757	56.08319092	96.42382813	1.0
3	-105.9280014	-5.248000145	-22.32099915	63.49370193	56.03199387	96.06536865	1.0
4	-105.9280014	-5.248000145	-22.32099915	63.13908768	55.94239426	95.52576447	1.0
[RightForeArm]
1	-278.414978	0	0	1.960266113	109.6549149	2.919921875	1.0
2	-278.414978	0	0	1.929919958	109.7953949	2.887842178	1.0
3	-278.414978	0	0	1.901087165	110.0100479	2.843839884	1.0
4	-278.414978	0	0	1.868152499	110.2724533	2.784582853	1.0
[RightHand]
1	-283.2879944	0	0.0009999999311	19.75494003	15.66271019	1.574255228	1.0
2	-283.2879944	0	0.0009999999311	19.87217522	15.48188782	1.659794807	1.0
3	-283.2879944	0	0.0009999999311	19.86977768	15.612607	1.260256529	1.0
4	-283.2879944	0	0.0009999999311	19.65976334	16.16259766	0.3319496512	1.0
[RightHandPinky1]
1	-80.76699829	-4.885000229	-38.06000137	0.8437774181	14.82966137	110.2977066	1.0
2	-80.76699829	-4.885000229	-38.06000137	0.8437387347	14.82965565	110.2975235	1.0
3	-80.76699829	-4.885000229	-38.06000137	0.8436480165	14.8296175	110.2971497	1.0
4	-80.76699829	-4.885000229	-38.06000137	0.8434805274	14.82955933	110.2965393	1.0
[RightHandPinky2]
1	-36	0	0.0009999999311	14.90034962	2.385694742	94.02323151	1.0
2	-36	0	0.0009999999311	14.90037823	2.385570049	94.02390289	1.0
3	-36	0	0.0009999999311	14.90045261	2.385235786	94.02565765	1.0
4	-36	0	0.0009999999311	14.90057945	2.384674072	94.02869415	1.0
[RightHandPinky3]
1	-21.14200211	0	0	-1.590277359e-15	0	-7.951386796e-16	1.0
2	-21.14200211	0	0	-1.590277359e-15	0	-7.951386796e-16	1.0
3	-21.14200211	0	0	-1.590277359e-15	0	-7.951386796e-16	1.0
4	-21.14200211	0	0	-1.590277359e-15	0	-7.951386796e-16	1.0
[RightHandPinky4]
1	-19.75699997	0	0	0	0	0	1.0
2	-19.75699997	0	0	0	0	0	1.0
3	-19.75699997	0	0	0	0	0	1.0
4	-19.75699997	0	0	0	0	0	1.0
[RightHandRing1]
1	-91.03599548	-0.4390000105	-18.65100098	-1.728644371	10.6194334	108.2253342	1.0
2	-91.03599548	-0.4390000105	-18.65100098	-1.728647709	10.61943626	108.2253189	1.0
3	-91.03599548	-0.4390000105	-18.65100098	-1.728645086	10.61943913	108.2253036	1.0
4	-91.03599548	-0.4390000105	-18.65100098	-1.728642821	10.61944199	108.2253342	1.0
[RightHandRing2]
1	-31.54000092	0	0	8.523524284	3.727946997	86.54672241	1.0
2	-31.54000092	0	0	8.523530006	3.727948427	86.54667664	1.0
3	-31.54000092	0	0	8.523526192	3.72795105	86.54669952	1.0
4	-31.54000092	0	0	8.523527145	3.727948904	86.54676819	1.0
[RightHandRing3]
1	-29.37700081	0	0	5.740008078e-07	-7.531911024e-07	-2.69121324e-06	1.0
2	-29.37700081	0	0	5.740008078e-07	-7.531911024e-07	-2.69121324e-06	1.0
3	-29.37700081	0	0	5.740008078e-07	-7.531911024e-07	-2.69121324e-06	1.0
4	-29.37700081	0	0	5.740008078e-07	-7.531911024e-07	-2.69121324e-06	1.0
[RightHandRing4]
1	-26.47500038	0	0	0	0	0	1.0
2	-26.47500038	0	0	0	0	0	1.0
3	-26.47500038	0	0	0	0	0	1.0
4	-26.47500038	0	0	0	0	0	1.0
[RightHandMiddle1]
1	-95.32500458	0	0	0.2724478543	7.959144592	103.422287	1.0
2	-95.32500458	0	0	0.272446245	7.959140301	103.422287	1.0
3	-95.32500458	0	0	0.2724527419	7.959143162	103.4222717	1.0
4	-95.32500458	0	0	0.2724523842	7.95914793	103.4223022	1.0
[RightHandMiddle2]
1	-36.98199844	0	0	-0.06873571128	7.827571392	94.7851181	1.0
2	-36.98199844	0	0	-0.06872419268	7.827561378	94.78511047	1.0
3	-36.98199844	0	0	-0.0687276274	7.827569962	94.78514099	1.0
4	-36.98199844	0	0	-0.06872340292	7.827571392	94.78518677	1.0
[RightHandMiddle3]
1	-29.50900078	0	0	1.856611448e-06	-0.002022909233	1.577868488e-06	1.0
2	-29.50900078	0	0	1.856611448e-06	-0.002022909233	1.577868488e-06	1.0
3	-29.50900078	0	0	1.856611448e-06	-0.002022909233	1.577868488e-06	1.0
4	-29.50900078	0	0	1.856611448e-06	-0.002022909233	1.577868488e-06	1.0
[RightHandMiddle4]
1	-28.3390007	0	0.0009999999311	0	0	0	1.0
2	-28.3390007	0	0.0009999999311	0	0	0	1.0
3	-28.3390007	0	0.0009999999311	0	0	0	1.0
4	-28.3390007	0	0.0009999999311	0	0	0	1.0
[RightHandIndex1]
1	-91.08300018	-5.167999744	22.60099792	3.534167528	1.945870399	108.7757339	1.0
2	-91.08300018	-5.167999744	22.60099792	3.534170628	1.945870519	108.7757492	1.0
3	-91.08300018	-5.167999744	22.60099792	3.534175158	1.945873022	108.7757416	1.0
4	-91.08300018	-5.167999744	22.60099792	3.534170151	1.945872188	108.7757797	1.0
[RightHandIndex2]
1	-36.76399994	0	0	-1.653340459	7.380066872	95.0959549	1.0
2	-36.76399994	0	0	-1.653339744	7.380054951	95.09596252	1.0
3	-36.76399994	0	0	-1.653340101	7.380058289	95.09596252	1.0
4	-36.76399994	0	0	-1.653328061	7.38007021	95.09602356	1.0
[RightHandIndex3]
1	-28.83100128	0	0	-3.180554719e-15	0	0	1.0
2	-28.83100128	0	0	-3.180554719e-15	0	0	1.0
3	-28.83100128	0	0	-3.180554719e-15	0	0	1.0
4	-28.83100128	0	0	-3.180554719e-15	0	0	1.0
[RightHandIndex4]
1	-23.92700005	0	0	0	0	0	1.0
2	-23.92700005	0	0	0	0	0	1.0
3	-23.92700005	0	0	0	0	0	1.0
4	-23.92700005	0	0	0	0	0	1.0
[RightHandThumb1]
1	-24.64799881	-15.72700024	26.82600021	10.27362061	16.38563728	1.317973852	1.0
2	-24.64799881	-15.72700024	26.82600021	10.27481937	16.38736725	1.316627145	1.0
3	-24.64799881	-15.72700024	26.82600021	10.27794838	16.39191055	1.313140392	1.0
4	-24.64799881	-15.72700024	26.82600021	10.28329086	16.39965057	1.30719614	1.0
[RightHandThumb2]
1	-32.29800034	-18.64699936	18.64699936	-1.242862582	-35.04806519	48.83246613	1.0
2	-32.29800034	-18.64699936	18.64699936	-1.243481994	-35.04769135	48.83519363	1.0
3	-32.29800034	-18.64699936	18.64699936	-1.245103359	-35.04669952	48.84234238	1.0
4	-32.29800034	-18.64699936	18.64699936	-1.247869611	-35.04499817	48.85453796	1.0
[RightHandThumb3]
1	-26.52600098	-15.31399918	15.31399918	-3.81245151e-08	-0.00121095567	-0.001221005921	1.0
2	-26.52600098	-15.31399918	15.31399918	-3.81245151e-08	-0.00121095567	-0.001221005921	1.0
3	-26.52600098	-15.31399918	15.31399918	-3.81245151e-08	-0.00121095567	-0.001221005921	1.0
4	-26.52600098	-15.31399918	15.31399918	-3.81245151e-08	-0.00121095567	-0.001221005921	1.0
[RightHandThumb4]
1	-19.54599953	-11.28499985	11.28499985	0	0	0	1.0
2	-19.54599953	-11.28499985	11.28499985	0	0	0	1.0
3	-19.54599953	-11.28499985	11.28499985	0	0	0	1.0
4	-19.54599953	-11.28499985	11.28499985	0	0	0	1.0
[LeftUpLeg]
1	82.07800293	-67.51699829	-15.99599934	-11.18629742	21.25797462	8.850037575	1.0
2	82.07800293	-67.51699829	-15.99599934	-11.33901405	21.25152206	8.827960014	1.0
3	82.07800293	-67.51699829	-15.99599934	-11.50551891	21.22785378	8.800664902	1.0
4	82.07800293	-67.51699829	-15.99599934	-11.68744373	21.16662407	8.757396698	1.0
[LeftLeg]
1	0	-443.7049866	2.845999956	25.46314049	1.97440052	1.659656167	1.0
2	0	-443.7049866	2.845999956	25.51776505	1.92660892	1.621545076	1.0
3	0	-443.7049866	2.845999956	25.50396919	1.78459537	1.537898421	1.0
4	0	-443.7049866	2.845999956	25.40193176	1.578221321	1.436364889	1.0
[LeftFoot]
1	0	-444.2789917	-29.8219986	-2.595801115	1.173620105	-11.53218555	1.0
2	0	-444.2789917	-29.8219986	-2.618429661	1.160831094	-11.5054493	1.0
3	0	-444.2789917	-29.8219986	-2.597063065	1.141825199	-11.4455328	1.0
4	0	-444.2789917	-29.8219986	-2.522236109	1.116159201	-11.35655022	1.0
[LeftToeBase]
1	0	-87.28699493	107.1060028	1.956764817	-1.118358796e-05	1.410037726e-06	1.0
2	0	-87.28699493	107.1060028	1.739117026	9.04940066e-07	-2.105022531e-06	1.0
3	0	-87.28699493	107.1060028	1.617974877	3.089626944e-06	-5.616389132e-08	1.0
4	0	-87.28699493	107.1060028	1.547056437	-9.060001958e-07	1.53686949e-06	1.0
[RightUpLeg]
1	-82.07800293	-67.51699829	-15.99599934	-2.306461811	-13.41020584	-13.78542233	1.0
2	-82.07800293	-67.51699829	-15.99599934	-2.375743151	-13.35552597	-13.69173622	1.0
3	-82.07800293	-67.51699829	-15.99599934	-2.356659889	-13.26912022	-13.54470158	1.0
4	-82.07800293	-67.51699829	-15.99599934	-2.25569725	-13.14724159	-13.33976936	1.0
[RightLeg]
1	0	-443.7049866	2.861999989	32.87609863	5.767084122	-2.797533751	1.0
2	0	-443.7049866	2.861999989	32.85842133	5.639495373	-2.933265209	1.0
3	0	-443.7049866	2.861999989	32.72540283	5.358505249	-3.18549037	1.0
4	0	-443.7049866	2.861999989	32.45581818	4.927094936	-3.548550367	1.0
[RightFoot]
1	0	-444.2770081	-29.83799934	-20.81051636	1.306503534	11.10246563	1.0
2	0	-444.2770081	-29.83799934	-20.81431007	1.312886953	11.18089008	1.0
3	0	-444.2770081	-29.83799934	-20.76927948	1.322385073	11.32317448	1.0
4	0	-444.2770081	-29.83799934	-20.65953636	1.332004547	11.52836609	1.0
[RightToeBase]
1	0	-87.28699493	107.1060028	-1.540364742	-1.727643212e-05	3.201851541e-06	1.0
2	0	-87.28699493	107.1060028	-1.603031874	1.029456485e-06	1.049697516e-06	1.0
3	0	-87.28699493	107.1060028	-1.67962718	9.242382475e-06	-1.163690058e-06	1.0
4	0	-87.28699493	107.1060028	-1.749739408	6.156950803e-06	-1.668913001e-06	1.0
[EndOfFile]
